<svg width="20" height="21" viewBox="0 0 20 21" fill="none" xmlns="http://www.w3.org/2000/svg">
<g clip-path="url(#clip0_97_5972)">
<path d="M15.8984 0.5H4.10156C1.83996 0.5 0 2.33996 0 4.60156V16.3984C0 18.66 1.83996 20.5 4.10156 20.5H15.8984C18.16 20.5 20 18.66 20 16.3984V4.60156C20 2.33996 18.16 0.5 15.8984 0.5ZM14.6369 6.20312L9.99836 10.8416L5.35988 6.20312H14.6369ZM4.01383 13.7044C3.97023 13.6225 3.94531 13.529 3.94531 13.4297V6.78906C3.94531 6.68977 3.97023 6.59629 4.01383 6.51434L7.60887 10.1094L4.01383 13.7044ZM5.35988 14.0156L8.4375 10.938L9.9984 12.4989L11.5609 10.9364L14.6401 14.0156H5.35988ZM16.0547 13.4297C16.0547 13.529 16.0298 13.6225 15.9862 13.7044L12.3895 10.1078L15.9851 6.51215C16.0295 6.59461 16.0547 6.68887 16.0547 6.78906V13.4297Z" fill="#CB242A"/>
</g>
<defs>
<clipPath id="clip0_97_5972">
<rect width="20" height="20" fill="white" transform="translate(0 0.5)"/>
</clipPath>
</defs>
</svg>
