<svg width="15" height="16" viewBox="0 0 15 16" fill="none" xmlns="http://www.w3.org/2000/svg">
<g clip-path="url(#clip0_97_3551)">
<path d="M12.6063 5.53204C12.6063 6.46396 12.3574 7.33523 11.9233 8.08523L7.49994 14.7874L3.07653 8.08523C2.64249 7.33523 2.39355 6.46396 2.39355 5.53204C2.39355 2.71077 4.67866 0.425659 7.49994 0.425659C10.3212 0.425659 12.6063 2.71077 12.6063 5.53204ZM10.0531 5.53204C10.0531 4.1214 8.91058 2.97885 7.49994 2.97885C6.0893 2.97885 4.94675 4.1214 4.94675 5.53204C4.94675 6.94268 6.0893 8.08523 7.49994 8.08523C8.91058 8.08523 10.0531 6.94268 10.0531 5.53204Z" fill="white"/>
<path d="M2.81035 8.26108L7.23375 14.9632C7.29311 15.0526 7.393 15.1065 7.50024 15.1065C7.60747 15.1065 7.70737 15.0526 7.76673 14.9632L12.2 8.24512C12.6749 7.42427 12.9258 6.48597 12.9258 5.53204C12.9258 2.54034 10.4919 0.106506 7.50024 0.106506C4.50854 0.106506 2.07471 2.54034 2.07471 5.53204C2.07471 6.48597 2.32556 7.42427 2.80045 8.2448C2.80364 8.25055 2.80683 8.25597 2.81035 8.26108ZM7.50024 0.744804C10.1399 0.744804 12.2875 2.89236 12.2875 5.53204C12.2875 6.37395 12.0663 7.20151 11.6572 7.90938L7.50024 14.2081L3.34843 7.91768C2.93258 7.19576 2.713 6.37108 2.713 5.53204C2.713 2.89236 4.86056 0.744804 7.50024 0.744804Z" fill="white"/>
<path d="M7.50027 8.40435C9.08421 8.40435 10.3726 7.11563 10.3726 5.53201C10.3726 3.94839 9.08421 2.65967 7.50027 2.65967C5.91633 2.65967 4.62793 3.94839 4.62793 5.53201C4.62793 7.11563 5.91633 8.40435 7.50027 8.40435ZM7.50027 3.29797C8.73187 3.29797 9.73431 4.30009 9.73431 5.53201C9.73431 6.76392 8.73187 7.76605 7.50027 7.76605C6.26867 7.76605 5.26623 6.76392 5.26623 5.53201C5.26623 4.30009 6.26867 3.29797 7.50027 3.29797Z" fill="white"/>
</g>
<defs>
<clipPath id="clip0_97_3551">
<rect width="15" height="15" fill="white" transform="translate(0 0.106506)"/>
</clipPath>
</defs>
</svg>
