<svg width="20" height="21" viewBox="0 0 20 21" fill="none" xmlns="http://www.w3.org/2000/svg">
<g clip-path="url(#clip0_97_5924)">
<path d="M16.0677 0.503418H3.93256C2.89077 0.504339 1.89191 0.918596 1.15525 1.65525C0.418596 2.39191 0.00433868 3.39077 0.00341797 4.43256V16.5677C0.00433868 17.6095 0.418596 18.6083 1.15525 19.345C1.89191 20.0816 2.89077 20.4959 3.93256 20.4968H16.0677C17.1095 20.4959 18.1083 20.0816 18.845 19.345C19.5816 18.6083 19.9959 17.6095 19.9968 16.5677V4.43256C19.9959 3.39077 19.5816 2.39191 18.845 1.65525C18.1083 0.918596 17.1095 0.504339 16.0677 0.503418ZM10.1948 16.7589C10.1704 16.7864 10.1404 16.8084 10.1068 16.8234C10.0733 16.8385 10.0369 16.8462 10.0001 16.8462C9.96334 16.8462 9.92698 16.8385 9.89342 16.8234C9.85986 16.8084 9.82986 16.7864 9.8054 16.7589C9.62459 16.5572 5.34079 11.7519 5.34079 9.10927C5.34079 6.38669 7.42705 4.16829 10.0001 4.16829C12.5732 4.16829 14.6594 6.37278 14.6594 9.10927C14.6594 11.7519 10.3756 16.5572 10.1948 16.7589Z" fill="#CB242A"/>
<path d="M9.99996 10.6459C11.0926 10.6459 11.9784 9.76012 11.9784 8.66744C11.9784 7.57476 11.0926 6.68896 9.99996 6.68896C8.90728 6.68896 8.02148 7.57476 8.02148 8.66744C8.02148 9.76012 8.90728 10.6459 9.99996 10.6459Z" fill="#CB242A"/>
</g>
<defs>
<clipPath id="clip0_97_5924">
<rect width="20" height="20" fill="white" transform="translate(0 0.5)"/>
</clipPath>
</defs>
</svg>
