<svg width="13" height="12" viewBox="0 0 13 12" fill="none" xmlns="http://www.w3.org/2000/svg">
<path d="M12.9598 4.57534C12.8613 4.27125 12.6032 4.05017 12.2911 4.00403L9.13013 3.53764L7.71766 0.639702C7.43798 0.0667139 6.51363 0.0667139 6.23395 0.639702L4.82147 3.53764L1.66796 4.00403C1.3568 4.05017 1.09781 4.27202 1.00018 4.57624C0.902557 4.87956 0.983682 5.21317 1.20953 5.43656L3.49672 7.70015L2.95717 10.8938C2.90423 11.2089 3.03169 11.5282 3.28648 11.7164C3.43045 11.8222 3.60095 11.8759 3.77221 11.8759C3.90462 11.8759 4.03703 11.844 4.15941 11.7793L6.97625 10.2711L9.8021 11.7793C10.0801 11.9297 10.4177 11.9044 10.6735 11.7155C10.9275 11.5273 11.055 11.2089 11.0021 10.8937L10.4634 7.70003L12.7506 5.43643C12.9763 5.21394 13.0567 4.87956 12.9598 4.57534Z" fill="#A8A8A8"/>
</svg>
