<svg width="13" height="12" viewBox="0 0 13 12" fill="none" xmlns="http://www.w3.org/2000/svg">
<path d="M12.2401 4.57534C12.1424 4.27125 11.8835 4.05017 11.5714 4.00403L8.41041 3.53764L6.99793 0.639702C6.71825 0.0667139 5.7939 0.0667139 5.51423 0.639702L4.10175 3.53764L0.948231 4.00403C0.637069 4.05017 0.378085 4.27202 0.280458 4.57624C0.182831 4.87956 0.263954 5.21317 0.489804 5.43656L2.77699 7.70015L2.23744 10.8938C2.1845 11.2089 2.31196 11.5291 2.56676 11.7164C2.82168 11.9037 3.1609 11.9282 3.43892 11.7794L6.25576 10.2712L9.08085 11.7794C9.2017 11.8441 9.33412 11.8761 9.46564 11.8761C9.6369 11.8761 9.80816 11.8214 9.95302 11.7165C10.2079 11.5274 10.3353 11.209 10.2823 10.8939L9.74367 7.70028L12.0309 5.43669C12.2567 5.21394 12.3377 4.87956 12.2401 4.57534Z" fill="#CB242A"/>
</svg>
