<svg width="100" height="100" viewBox="0 0 100 100" fill="none" xmlns="http://www.w3.org/2000/svg">
<rect width="100" height="100" rx="17.094" fill="#CB242A"/>
<path d="M40.978 54.4126C36.9084 54.4126 33.5976 57.7234 33.5976 61.793C33.5976 65.8626 36.9084 69.1733 40.978 69.1733C45.0475 69.1733 48.3583 65.8626 48.3583 61.793C48.3583 57.7234 45.0474 54.4126 40.978 54.4126ZM40.978 67.5326C37.8131 67.5326 35.2382 64.9578 35.2382 61.7929C35.2382 58.628 37.8131 56.0532 40.978 56.0532C44.1429 56.0532 46.7177 58.628 46.7177 61.7929C46.7177 64.9578 44.1429 67.5326 40.978 67.5326ZM68.1069 45.5048C65.9663 45.5048 63.6627 46.1917 63.6627 47.6999C63.6627 49.2081 65.9663 49.8951 68.1069 49.8951C70.2474 49.8951 72.5512 49.2081 72.5512 47.6999C72.5512 46.1917 70.2473 45.5048 68.1069 45.5048ZM68.1069 48.2544C66.6979 48.2544 65.753 47.9353 65.4051 47.6999C65.753 47.4645 66.6978 47.1454 68.1069 47.1454C69.5159 47.1454 70.4607 47.4645 70.8088 47.6999C70.4607 47.9353 69.5158 48.2544 68.1069 48.2544ZM78.125 28.2312H75.4771C75.3432 27.4326 74.649 26.8214 73.8129 26.8214H68.3911V24.5544C68.3911 24.1014 68.0238 23.7341 67.5707 23.7341H64.7779C64.3249 23.7341 63.9576 24.1014 63.9576 24.5544V25.0678H61.9851C61.5321 25.0678 61.1648 25.4351 61.1648 25.8882V26.1873H54.3467C53.4152 26.1873 52.6573 26.9452 52.6573 27.8768V29.1851H52.2607C51.8076 29.1851 51.4403 29.5524 51.4403 30.0054C51.4403 30.4585 51.8076 30.8257 52.2607 30.8257H52.6573V30.9441H51.4687C51.2832 30.9441 51.1323 30.7932 51.1323 30.6075V29.9716C51.1323 29.5185 50.765 29.1512 50.312 29.1512C49.8589 29.1512 49.4916 29.5185 49.4916 29.9716V30.6075C49.4916 31.6977 50.3785 32.5847 51.4687 32.5847H52.7202C52.9181 33.2979 53.5714 33.8235 54.3466 33.8235H61.1647V34.1219C61.1647 34.5749 61.532 34.9422 61.985 34.9422H63.9575V35.4556C63.9575 35.9086 64.3248 36.2759 64.7778 36.2759H67.5706C68.0237 36.2759 68.3909 35.9086 68.3909 35.4556V33.1893H73.8127C74.6489 33.1893 75.3431 32.5782 75.477 31.7795H78.125C78.578 31.7795 78.9453 31.4123 78.9453 30.9592V29.0515C78.9453 28.5985 78.578 28.2312 78.125 28.2312ZM58.3291 27.8278V32.1826H57.1338V27.8278H58.3291ZM54.2981 32.1338V27.8767C54.2981 27.8512 54.3213 27.8278 54.3468 27.8278H55.4932V32.1826H54.3468C54.3213 32.1826 54.2981 32.1593 54.2981 32.1338ZM59.9697 32.1826V27.8278H61.1648V32.1826H59.9697ZM62.8054 33.3013V26.7083H63.9576V33.3012L62.8054 33.3013ZM66.7505 34.635H65.5984V25.3748H66.7505V34.635ZM73.8616 31.4996C73.8616 31.5251 73.8384 31.5484 73.8129 31.5484H68.3911V28.4621H73.8129C73.8384 28.4621 73.8616 28.4853 73.8616 28.5109V31.4996ZM77.3047 30.1385H75.5022V29.8718H77.3047V30.1385ZM75.4817 44.2455C73.4988 43.4932 70.8796 43.0789 68.1068 43.0789C67.9204 43.0789 67.735 43.0811 67.5502 43.0847V42.7294C67.5502 42.1499 67.3258 41.635 66.9012 41.2404L64.8794 39.3618C64.2777 38.8028 63.4361 38.6597 62.6839 38.9876C61.8741 39.3406 61.4635 40.0241 61.4635 41.0192C61.4635 41.2353 61.2877 41.411 61.0716 41.411H60.2907C60.0745 41.411 59.8987 41.2353 59.8987 41.0192V39.6401C59.8987 38.5194 58.987 37.6076 57.8662 37.6076H52.2233C52.1299 37.6076 51.9826 37.4546 51.7686 37.221L49.5145 34.7655C49.1592 34.3776 48.6725 33.8465 47.8501 33.8465H42.3148V30.8005H46.3361C46.7892 30.8005 47.1564 30.4333 47.1564 29.9802C47.1564 29.5272 46.7892 29.1599 46.3361 29.1599H41.5039C41.4977 29.1599 41.4914 29.1599 41.4852 29.1599H36.6529C36.1999 29.1599 35.8326 29.5272 35.8326 29.9802C35.8326 30.4333 36.1999 30.8005 36.6529 30.8005H40.6742V33.8467H33.1077C32.3163 33.8467 31.6132 34.2905 31.273 35.0046L30.6887 36.2303C30.6191 36.3764 30.4967 36.4535 30.3349 36.4535H28.1288C27.0082 36.4535 26.0962 37.3653 26.0962 38.486V44.6169H22.6953V38.8575C22.6953 38.4045 22.328 38.0372 21.875 38.0372C21.422 38.0372 21.0547 38.4045 21.0547 38.8575V52.017C21.0547 52.47 21.422 52.8373 21.875 52.8373C22.328 52.8373 22.6953 52.47 22.6953 52.017V46.2576H26.0962V52.3885C26.0962 53.5091 27.008 54.421 28.1288 54.421H29.4182C29.5016 54.6139 29.6206 54.795 29.7779 54.9524C30.5435 55.718 30.5253 56.6932 30.253 57.3508C29.9807 58.0082 29.3039 58.7106 28.2213 58.7106C27.2744 58.7106 26.5041 59.4809 26.5041 60.4278V63.1583C26.5041 64.1052 27.2744 64.8755 28.2213 64.8755C29.3039 64.8755 29.9807 65.578 30.253 66.2353C30.5253 66.8928 30.5435 67.8681 29.778 68.6336C29.1084 69.3031 29.1084 70.3924 29.778 71.0622L31.7088 72.993C32.0332 73.3173 32.4643 73.4959 32.9231 73.4959C33.3819 73.4959 33.8131 73.3173 34.1373 72.993C34.9041 72.2261 35.8795 72.2437 36.5366 72.5158C37.1935 72.7879 37.8956 73.4651 37.8956 74.5496C37.8956 75.4964 38.6659 76.2667 39.6126 76.2667H42.3433C43.2901 76.2667 44.0604 75.4964 44.0604 74.5496C44.0604 73.4669 44.7628 72.7902 45.4202 72.5179C46.0773 72.2455 47.0529 72.2273 47.8184 72.9928C48.1428 73.3172 48.5739 73.4958 49.0327 73.4958C49.4914 73.4958 49.9227 73.3172 50.2469 72.9928L52.1779 71.0619C52.8474 70.3923 52.8474 69.303 52.1778 68.6335C51.4123 67.8679 51.4305 66.8926 51.7029 66.2352C51.9751 65.5778 52.652 64.8754 53.7345 64.8754C54.6814 64.8754 55.4517 64.1051 55.4517 63.1582V60.4276C55.4517 59.4808 54.6814 58.7105 53.7345 58.7105C52.8881 58.7105 52.2909 58.2808 51.94 57.7792H57.2684V71.6457C57.2684 73.026 58.4984 74.2528 60.732 75.1002C62.7148 75.8524 65.334 76.2668 68.1069 76.2668C70.8798 76.2668 73.4989 75.8526 75.4818 75.1002C77.7153 74.2528 78.9454 73.026 78.9454 71.6457V47.6999C78.9453 46.3197 77.7152 45.0928 75.4817 44.2455ZM53.7346 60.3511C53.7768 60.3511 53.8112 60.3855 53.8112 60.4276V63.1582C53.8112 63.2004 53.7768 63.2348 53.7346 63.2348C52.1527 63.2348 50.7935 64.1439 50.1873 65.6074C49.5811 67.071 49.8993 68.6751 51.018 69.7936C51.0479 69.8235 51.0478 69.8721 51.018 69.902L49.0871 71.8328C49.0573 71.8627 49.0086 71.8626 48.9786 71.8328C47.86 70.7142 46.256 70.3961 44.7924 71.0022C43.3289 71.6084 42.4197 72.9676 42.4197 74.5496C42.4197 74.5917 42.3854 74.6261 42.3433 74.6261H39.6126C39.5705 74.6261 39.5362 74.5917 39.5362 74.5496C39.5362 72.9661 38.6273 71.606 37.1645 71C36.674 70.7969 36.1681 70.6977 35.6696 70.6977C34.6808 70.6977 33.7217 71.0883 32.9772 71.8328C32.9475 71.8624 32.8988 71.8624 32.8688 71.8328L30.938 69.902C30.908 69.8721 30.908 69.8235 30.9379 69.7936C32.0566 68.6751 32.3749 67.071 31.7687 65.6074C31.1623 64.1439 29.8032 63.2348 28.2213 63.2348C28.1791 63.2348 28.1448 63.2004 28.1448 63.1582V60.4276C28.1448 60.3855 28.1791 60.3511 28.2213 60.3511C29.8032 60.3511 31.1625 59.442 31.7687 57.9784C32.375 56.5149 32.0567 54.9108 30.938 53.7921C30.9082 53.7623 30.9083 53.7137 30.9382 53.6839L32.8689 51.753C32.8989 51.723 32.9476 51.7231 32.9773 51.753C34.0961 52.8715 35.7002 53.1899 37.1636 52.5836C38.6272 51.9774 39.5363 50.6181 39.5363 49.0362C39.5363 48.994 39.5707 48.9597 39.6127 48.9597H42.3434C42.3855 48.9597 42.4198 48.994 42.4198 49.0362C42.4198 50.6181 43.329 51.9774 44.7925 52.5836C46.256 53.1898 47.8602 52.8715 48.9787 51.753C49.0087 51.723 49.0573 51.7231 49.0871 51.753L51.018 53.6839C51.0479 53.7137 51.048 53.7624 51.018 53.7923C49.8995 54.9108 49.5812 56.515 50.1874 57.9785C50.7935 59.442 52.1527 60.3511 53.7346 60.3511ZM51.5606 56.1387C51.6259 55.7338 51.8112 55.3191 52.1779 54.9524C52.8474 54.2829 52.8475 53.1935 52.178 52.5239L50.2469 50.5928C49.5774 49.9235 48.4879 49.9238 47.8184 50.5929C47.0532 51.3584 46.0779 51.3405 45.4202 51.068C44.7628 50.7957 44.0604 50.119 44.0604 49.0363C44.0604 48.0894 43.2901 47.3192 42.3433 47.3192H39.6126C38.6659 47.3192 37.8956 48.0896 37.8956 49.0363C37.8956 50.119 37.1932 50.7957 36.5357 51.068C35.8783 51.3403 34.903 51.3585 34.1374 50.5929C33.468 49.9237 32.3786 49.9234 31.7088 50.5929L29.7779 52.5239C29.698 52.6037 29.6284 52.69 29.5675 52.7803H28.1288C27.9126 52.7803 27.7368 52.6046 27.7368 52.3885V38.486C27.7368 38.27 27.9126 38.0942 28.1288 38.0942H30.3348C31.1261 38.0942 31.8291 37.6504 32.1695 36.9361L32.7537 35.7105C32.8234 35.5644 32.9457 35.4872 33.1075 35.4872H47.8501C47.9436 35.4872 48.0909 35.6403 48.3049 35.8738L50.5591 38.3295C50.9143 38.7173 51.401 39.2483 52.2233 39.2483H57.8662C58.0823 39.2483 58.2581 39.4241 58.2581 39.6402V41.0193C58.2581 42.1399 59.1699 43.0518 60.2907 43.0518H61.0716C62.1923 43.0518 63.1041 42.1401 63.1041 41.0193C63.1041 40.5942 63.2028 40.5511 63.3395 40.4916C63.4912 40.4255 63.6416 40.4513 63.7627 40.5638L65.7845 42.4423C65.8734 42.5249 65.9096 42.6081 65.9096 42.7295V43.1686C63.9697 43.3276 62.1807 43.6958 60.7319 44.2455C58.4984 45.0928 57.2683 46.3197 57.2683 47.7V56.1387H51.5606ZM58.9091 53.9014C59.3805 54.2215 59.9485 54.5141 60.6078 54.7728V69.5914C59.5109 69.068 58.9091 68.4775 58.9091 67.9794V53.9014ZM68.1069 74.6261C62.4922 74.6261 58.9092 72.8609 58.9092 71.6457V70.5144C59.41 70.8545 60.0198 71.1635 60.7321 71.4338C62.715 72.186 65.3341 72.6004 68.107 72.6004C70.8799 72.6004 73.499 72.1861 75.482 71.4338C76.1943 71.1635 76.8041 70.8545 77.3049 70.5144V71.6457C77.3047 72.8609 73.7216 74.6261 68.1069 74.6261ZM62.2486 70.2049V55.2992C62.7874 55.4392 63.3556 55.559 63.9472 55.6575V70.6039C63.3308 70.491 62.7627 70.3559 62.2486 70.2049ZM65.5878 70.8352V55.8702C66.1421 55.9227 66.7098 55.958 67.2866 55.9751V70.9472C66.6945 70.9286 66.1271 70.8903 65.5878 70.8352ZM68.9272 70.9471V55.9751C69.504 55.958 70.0716 55.9227 70.6259 55.8702V70.8352C70.0865 70.8903 69.5191 70.9286 68.9272 70.9471ZM72.2666 70.6037V55.6575C72.8581 55.5591 73.4264 55.4392 73.9652 55.2992V70.2049C73.4507 70.3559 72.8833 70.491 72.2666 70.6037ZM75.6058 69.5915V54.7729C76.2651 54.5142 76.8332 54.2216 77.3047 53.9014V67.9794C77.3047 68.4775 76.7027 69.068 75.6058 69.5915ZM68.1069 54.3467C62.4922 54.3467 58.9092 52.5815 58.9092 51.3662V50.235C59.41 50.5751 60.0198 50.8841 60.7321 51.1544C62.715 51.9066 65.3341 52.321 68.107 52.321C70.8799 52.321 73.499 51.9067 75.482 51.1544C76.1943 50.8841 76.8041 50.5751 77.3049 50.235V51.3662C77.3047 52.5815 73.7216 54.3467 68.1069 54.3467ZM68.1069 50.6803C62.4922 50.6803 58.9092 48.9151 58.9092 47.6999C58.9092 46.4847 62.4922 44.7195 68.1069 44.7195C73.7216 44.7195 77.3047 46.4847 77.3047 47.6999C77.3047 48.9151 73.7216 50.6803 68.1069 50.6803Z" fill="white"/>
</svg>
