<svg width="64" height="64" viewBox="0 0 64 64" fill="none" xmlns="http://www.w3.org/2000/svg">
<rect width="64" height="64" rx="10" fill="#262626"/>
<g clip-path="url(#clip0_97_3679)">
<path d="M28.25 32C29.7334 32 31.1834 31.5601 32.4168 30.736C33.6501 29.9119 34.6114 28.7406 35.1791 27.3701C35.7468 25.9997 35.8953 24.4917 35.6059 23.0368C35.3165 21.582 34.6022 20.2456 33.5533 19.1967C32.5044 18.1478 31.168 17.4335 29.7132 17.1441C28.2583 16.8547 26.7503 17.0032 25.3799 17.5709C24.0094 18.1386 22.8381 19.0999 22.014 20.3332C21.1899 21.5666 20.75 23.0166 20.75 24.5C20.752 26.4885 21.5428 28.395 22.9489 29.8011C24.355 31.2072 26.2615 31.998 28.25 32ZM28.25 19.5C29.2389 19.5 30.2056 19.7932 31.0279 20.3427C31.8501 20.8921 32.491 21.673 32.8694 22.5866C33.2478 23.5002 33.3469 24.5055 33.1539 25.4755C32.961 26.4454 32.4848 27.3363 31.7855 28.0355C31.0863 28.7348 30.1954 29.211 29.2255 29.4039C28.2555 29.5969 27.2502 29.4978 26.3366 29.1194C25.423 28.741 24.6421 28.1001 24.0927 27.2779C23.5432 26.4556 23.25 25.4889 23.25 24.5C23.25 23.1739 23.7768 21.9022 24.7145 20.9645C25.6521 20.0268 26.9239 19.5 28.25 19.5Z" fill="white"/>
<path d="M28.25 34.5C25.2674 34.5036 22.4081 35.6901 20.2991 37.7991C18.1901 39.9081 17.0036 42.7674 17 45.75C17 46.0815 17.1317 46.3995 17.3661 46.6339C17.6005 46.8683 17.9185 47 18.25 47C18.5815 47 18.8995 46.8683 19.1339 46.6339C19.3683 46.3995 19.5 46.0815 19.5 45.75C19.5 43.4294 20.4219 41.2038 22.0628 39.5628C23.7038 37.9219 25.9294 37 28.25 37C30.5706 37 32.7962 37.9219 34.4372 39.5628C36.0781 41.2038 37 43.4294 37 45.75C37 46.0815 37.1317 46.3995 37.3661 46.6339C37.6005 46.8683 37.9185 47 38.25 47C38.5815 47 38.8995 46.8683 39.1339 46.6339C39.3683 46.3995 39.5 46.0815 39.5 45.75C39.4964 42.7674 38.3099 39.9081 36.2009 37.7991C34.0919 35.6901 31.2326 34.5036 28.25 34.5Z" fill="white"/>
<path d="M44.4998 26.8438C43.8041 26.8784 43.1505 27.1872 42.682 27.7026C42.2135 28.218 41.9682 28.898 41.9998 29.5938C42.0314 28.898 41.7861 28.218 41.3176 27.7026C40.849 27.1872 40.1954 26.8784 39.4998 26.8438C38.8041 26.8784 38.1505 27.1872 37.682 27.7026C37.2135 28.218 36.9682 28.898 36.9998 29.5938C36.9998 31.7563 39.8198 34.29 41.2248 35.4175C41.4447 35.5936 41.7181 35.6895 41.9998 35.6895C42.2815 35.6895 42.5549 35.5936 42.7748 35.4175C44.1798 34.2925 46.9998 31.7563 46.9998 29.5938C47.0314 28.898 46.7861 28.218 46.3176 27.7026C45.849 27.1872 45.1954 26.8784 44.4998 26.8438Z" fill="white"/>
</g>
<defs>
<clipPath id="clip0_97_3679">
<rect width="30" height="30" fill="white" transform="translate(17 17)"/>
</clipPath>
</defs>
</svg>
