<svg width="64" height="64" viewBox="0 0 64 64" fill="none" xmlns="http://www.w3.org/2000/svg">
<rect width="64" height="64" rx="10" fill="#262626"/>
<g clip-path="url(#clip0_97_3670)">
<path d="M32 17C23.7287 17 17 23.7287 17 32C17 40.2712 23.7287 47 32 47C40.2712 47 47 40.2712 47 32C47 23.7287 40.2712 17 32 17ZM32 44.5C25.1075 44.5 19.5 38.8925 19.5 32C19.5 25.1075 25.1075 19.5 32 19.5C38.8925 19.5 44.5 25.1075 44.5 32C44.5 38.8925 38.8925 44.5 32 44.5ZM29.5 29.5C29.5 29.9725 29.8387 30.3725 30.305 30.45L34.1063 31.0837C35.7838 31.3625 37 32.8 37 34.5C37 36.5675 35.3175 38.25 33.25 38.25V40.75H30.75V38.25C28.6825 38.25 27 36.5675 27 34.5H29.5C29.5 35.19 30.06 35.75 30.75 35.75H33.25C33.94 35.75 34.5 35.19 34.5 34.5C34.5 34.0275 34.1612 33.6275 33.695 33.55L29.8937 32.9163C28.2162 32.6375 27 31.2 27 29.5C27 27.4325 28.6825 25.75 30.75 25.75V23.25H33.25V25.75C35.3175 25.75 37 27.4325 37 29.5H34.5C34.5 28.8112 33.94 28.25 33.25 28.25H30.75C30.06 28.25 29.5 28.8112 29.5 29.5Z" fill="white"/>
</g>
<defs>
<clipPath id="clip0_97_3670">
<rect width="30" height="30" fill="white" transform="translate(17 17)"/>
</clipPath>
</defs>
</svg>
