<svg width="64" height="64" viewBox="0 0 64 64" fill="none" xmlns="http://www.w3.org/2000/svg">
<rect width="64" height="64" rx="10" fill="#262626"/>
<g clip-path="url(#clip0_97_3649)">
<path d="M46.0247 24.1788L42.2609 19.0938C41.7981 18.4467 41.1877 17.9192 40.4803 17.5551C39.7729 17.191 38.989 17.0007 38.1934 17H25.8059C25.0142 16.9993 24.2336 17.1865 23.5284 17.5464C22.8233 17.9063 22.2136 18.4285 21.7497 19.07L17.9184 24.1913C17.2946 25.0709 16.9725 26.1288 17.0002 27.2068C17.0279 28.2848 17.404 29.3249 18.0722 30.1713L29.0622 45.5813C29.4124 46.0247 29.8588 46.3829 30.3677 46.6287C30.8765 46.8744 31.4346 47.0014 31.9997 47C32.5745 46.9989 33.1413 46.8658 33.6567 46.6112C34.172 46.3566 34.622 45.9871 34.9722 45.5313L45.8747 30.2925C46.5728 29.4337 46.9662 28.3676 46.9934 27.2612C47.0205 26.1548 46.6798 25.0707 46.0247 24.1788ZM40.2397 20.5638L44.0122 25.6613C44.0322 25.6888 44.0372 25.7213 44.0572 25.75H37.9422L36.1572 19.5H38.1934C38.5946 19.5012 38.9897 19.5985 39.3457 19.7835C39.7016 19.9686 40.0082 20.2361 40.2397 20.5638ZM31.9997 40.8975L28.6247 28.25H35.3747L31.9997 40.8975ZM28.6572 25.75L30.4422 19.5H33.5572L35.3422 25.75H28.6572ZM23.7709 20.5463C24.0028 20.223 24.3083 19.9595 24.6622 19.7776C25.016 19.5957 25.4081 19.5005 25.8059 19.5H27.8422L26.0572 25.75H19.8972C19.9147 25.7225 19.9197 25.6888 19.9397 25.6625L23.7709 20.5463ZM20.0597 28.6563C19.9694 28.5288 19.8919 28.3927 19.8284 28.25H26.0397L29.7822 42.2875L20.0597 28.6563ZM34.2134 42.3L37.9634 28.25H44.1959C44.1154 28.4366 44.0134 28.6132 43.8922 28.7763L34.2134 42.3Z" fill="white"/>
</g>
<defs>
<clipPath id="clip0_97_3649">
<rect width="30" height="30" fill="white" transform="translate(17 17)"/>
</clipPath>
</defs>
</svg>
