<svg width="64" height="64" viewBox="0 0 64 64" fill="none" xmlns="http://www.w3.org/2000/svg">
<rect width="64" height="64" rx="10" fill="#262626"/>
<g clip-path="url(#clip0_97_3661)">
<path d="M36.375 35.75H41.375V38.25H36.375V35.75ZM47 34.5V47H17V34.5C17 32.4325 18.6825 30.75 20.75 30.75H23.25V20.75C23.25 18.6825 24.9325 17 27 17H37C39.0675 17 40.75 18.6825 40.75 20.75V30.75H43.25C45.3175 30.75 47 32.4325 47 34.5ZM25.75 30.75H38.25V20.75C38.25 20.06 37.69 19.5 37 19.5H27C26.31 19.5 25.75 20.06 25.75 20.75V30.75ZM19.5 44.5H30.75V33.25H20.75C20.06 33.25 19.5 33.81 19.5 34.5V44.5ZM44.5 34.5C44.5 33.81 43.94 33.25 43.25 33.25H33.25V44.5H44.5V34.5ZM22.625 35.75V38.25H27.625V35.75H22.625ZM29.5 24.5H34.5V22H29.5V24.5Z" fill="white"/>
</g>
<defs>
<clipPath id="clip0_97_3661">
<rect width="30" height="30" fill="white" transform="translate(17 17)"/>
</clipPath>
</defs>
</svg>
