<svg width="64" height="64" viewBox="0 0 64 64" fill="none" xmlns="http://www.w3.org/2000/svg">
<rect width="64" height="64" rx="10" fill="#262626"/>
<g clip-path="url(#clip0_97_3640)">
<path d="M31.9854 23.9853C29.0441 23.9853 26.6521 26.3773 26.6521 29.3187C26.6521 32.26 29.0441 34.652 31.9854 34.652C34.9267 34.652 37.3187 32.26 37.3187 29.3187C37.3187 26.3773 34.9267 23.9853 31.9854 23.9853ZM31.9854 31.9853C30.5147 31.9853 29.3187 30.7893 29.3187 29.3187C29.3187 27.848 30.5147 26.652 31.9854 26.652C33.4561 26.652 34.6521 27.848 34.6521 29.3187C34.6521 30.7893 33.4561 31.9853 31.9854 31.9853ZM47.9841 40.6587C47.9161 40.0333 47.6334 39.4427 47.1867 38.992L42.7014 34.508C42.7041 34.52 42.7067 34.532 42.7014 34.508C42.7001 34.5 42.6974 34.4907 42.6974 34.4947C42.6174 34.116 42.7681 33.5653 43.1227 33.3373C43.7881 32.908 44.3267 32.3253 44.7241 31.608C45.1041 30.9213 45.3041 30.1347 45.3001 29.34C45.3041 28.5347 45.1054 27.7467 44.7241 27.0613C44.3267 26.344 43.7881 25.7613 43.1214 25.332C42.7641 25.1013 42.5814 24.692 42.6681 24.312C42.8467 23.5213 42.8201 22.712 42.5881 21.9053C42.1494 20.3747 40.9254 19.152 39.3947 18.7133C38.5881 18.4827 37.7787 18.4533 36.9894 18.6347C36.6094 18.7187 36.2014 18.5373 35.9707 18.1813C35.5427 17.516 34.9601 16.9773 34.2414 16.5787C32.8494 15.8053 31.1187 15.8053 29.7254 16.5787C29.0067 16.9773 28.4254 17.516 27.9974 18.18C27.7667 18.5373 27.3601 18.72 26.9774 18.6347C26.1894 18.4547 25.3801 18.4813 24.5734 18.7133C23.0427 19.152 21.8187 20.376 21.3801 21.9053C21.1481 22.7133 21.1214 23.5227 21.3001 24.312C21.3854 24.6907 21.2041 25.1 20.8454 25.332C20.1801 25.7627 19.6414 26.344 19.2441 27.0613C18.8641 27.748 18.6641 28.5347 18.6681 29.3293C18.6641 30.1347 18.8627 30.9227 19.2427 31.608C19.6401 32.3253 20.1801 32.908 20.8467 33.3387C21.2001 33.5667 21.3454 34.1413 21.2667 34.52C21.2667 34.5227 21.2667 34.5267 21.2641 34.5347C21.2574 34.564 21.2601 34.5507 21.2641 34.5347L16.8014 38.9973C16.3587 39.444 16.0774 40.0347 16.0081 40.6587C15.8401 42.1867 16.9467 43.568 18.4761 43.7387L20.0761 43.916L20.2507 45.4907C20.3147 46.128 20.5987 46.7293 21.0534 47.184C21.3494 47.48 21.7134 47.708 22.0947 47.84C22.4014 47.9507 22.7187 48.0027 23.0347 48.0027C23.7667 48.0027 24.4827 47.716 25.0014 47.1853L29.9694 42.216C30.6027 42.5187 31.2947 42.6707 31.9867 42.6707C32.6841 42.6707 33.3801 42.516 34.0174 42.208L38.9814 47.172C39.5094 47.712 40.2307 48.0027 40.9627 48.0027C41.2734 48.0027 41.5867 47.9507 41.8881 47.8427C42.2814 47.7053 42.6454 47.4787 42.9414 47.1813C43.3961 46.7253 43.6801 46.124 43.7401 45.5053L43.9174 43.916L45.5174 43.7387C47.0454 43.5693 48.1534 42.188 47.9854 40.66L47.9841 40.6587ZM22.9934 45.3267L22.9094 45.2107L22.4921 41.4987L18.7707 41.0853C18.7027 41.0787 18.6521 41.016 18.6907 40.8773L21.8041 37.764C22.4001 38.8133 23.3961 39.616 24.5747 39.9533C25.3814 40.184 26.1921 40.212 26.9801 40.032C27.3374 39.9493 27.7241 40.1093 27.9601 40.4293L22.9934 45.3253V45.3267ZM33.7321 39.0413C33.5441 39.3333 33.2814 39.5733 32.9507 39.7573C32.3654 40.0813 31.6067 40.0813 31.0201 39.7573C30.6907 39.5747 30.4281 39.3333 30.2401 39.0413C29.5494 37.9733 28.3774 37.3467 27.1641 37.3467C26.9067 37.3467 26.6467 37.3747 26.3894 37.4333C26.0427 37.5107 25.6787 37.4973 25.3081 37.3907C24.6641 37.2067 24.1281 36.6707 23.9441 36.0267C23.8374 35.656 23.8241 35.292 23.9027 34.9453C24.2361 33.4787 23.5894 31.932 22.2947 31.096C22.0014 30.9067 21.7601 30.644 21.5774 30.3133C21.4187 30.0267 21.3347 29.6893 21.3361 29.3267C21.3347 28.976 21.4187 28.6387 21.5774 28.352C21.7601 28.0227 22.0001 27.76 22.2934 27.5707C23.5894 26.7347 24.2347 25.188 23.9027 23.72C23.8241 23.3733 23.8387 23.0107 23.9454 22.6387C24.1294 21.9947 24.6654 21.46 25.3094 21.276C25.6801 21.1707 26.0441 21.156 26.3894 21.2333C27.8534 21.5667 29.4041 20.9213 30.2401 19.624C30.4281 19.332 30.6907 19.092 31.0201 18.908C31.6054 18.584 32.3641 18.584 32.9507 18.908C33.2814 19.092 33.5441 19.332 33.7321 19.624C34.5681 20.92 36.1161 21.564 37.5814 21.232C37.9294 21.1547 38.2921 21.1693 38.6627 21.2747C39.3067 21.4587 39.8427 21.9947 40.0281 22.6387C40.1347 23.0093 40.1481 23.3733 40.0694 23.72C39.7361 25.1867 40.3814 26.7347 41.6774 27.5693C41.9707 27.7587 42.2107 28.0213 42.3934 28.3507C42.5521 28.6387 42.6361 28.976 42.6347 29.3373C42.6361 29.688 42.5521 30.0253 42.3934 30.312C42.2107 30.6413 41.9707 30.9053 41.6787 31.0933C40.3827 31.9293 39.7361 33.4773 40.0694 34.9427C40.1481 35.2907 40.1347 35.6547 40.0281 36.0253C39.8427 36.6693 39.3067 37.2053 38.6627 37.3893C38.2961 37.496 37.9321 37.5107 37.5841 37.432C36.1201 37.1 34.5707 37.7453 33.7334 39.0413H33.7321ZM45.2227 41.0853L41.5014 41.4987L41.0894 45.2093L41.0107 45.3227L40.8827 45.2947H40.8774L36.0121 40.4307C36.2481 40.1107 36.6321 39.9493 36.9934 40.032C37.7827 40.212 38.5907 40.1827 39.3974 39.9533C40.5774 39.616 41.5747 38.8107 42.1707 37.76L45.3334 40.9493C45.3414 41.016 45.2907 41.0787 45.2227 41.0867V41.0853ZM21.2654 34.532C21.2681 34.5213 21.2707 34.5107 21.2694 34.5173C21.2694 34.5227 21.2681 34.528 21.2667 34.532H21.2654Z" fill="white"/>
</g>
<defs>
<clipPath id="clip0_97_3640">
<rect width="32" height="32" fill="white" transform="translate(16 16)"/>
</clipPath>
</defs>
</svg>
